<svg width="80" height="80" viewBox="0 0 80 80" fill="none" xmlns="http://www.w3.org/2000/svg">
<g clip-path="url(#clip0)">
<path d="M71.2627 66.8067C70.6053 66.4788 69.8053 66.7453 69.4759 67.4027C69.1453 68.06 69.4119 68.8614 70.0692 69.1921C70.1412 69.228 77.3333 72.9174 77.3333 78.6667C77.3333 79.4027 77.9306 80 78.6666 80C79.4025 80 79.9998 79.4027 79.9998 78.6667C80 71.2614 71.62 66.9853 71.2627 66.8067Z" fill="white"/>
<path d="M40 0C25.6041 0 13.2333 8.82266 8 21.3427V7.75469C9.54937 7.20141 10.6667 5.73609 10.6667 4C10.6667 1.79469 8.87203 0 6.66672 0C4.46141 0 2.66672 1.79469 2.66672 4C2.66672 5.73594 3.78406 7.20141 5.33344 7.75328V34.6666C5.33344 43.0706 8.34015 50.7825 13.3334 56.7906V67.3147C13.3334 67.7253 13.5241 68.1147 13.8481 68.3667C21.3975 74.2334 30.4402 77.3334 40.0002 77.3334C49.5602 77.3334 58.6042 74.2334 66.1522 68.3667C66.4762 68.1147 66.6669 67.7253 66.6669 67.3147V56.7906C71.6602 50.7827 74.6669 43.0706 74.6669 34.6666C74.6667 15.552 59.1147 0 40 0ZM6.66672 5.33328C5.93203 5.33328 5.33344 4.73469 5.33344 4C5.33344 3.26531 5.93203 2.66672 6.66672 2.66672C7.40141 2.66672 8 3.26531 8 4C8 4.73469 7.40141 5.33328 6.66672 5.33328ZM64 66.6559C57.0294 71.8986 48.7453 74.6666 40 74.6666C31.2547 74.6666 22.972 71.8986 16 66.6559V59.6466C22.2347 65.6386 30.692 69.3333 40 69.3333C49.308 69.3333 57.7653 65.6386 64 59.6466V66.6559ZM64.5586 55.1533C64.3853 55.28 64.24 55.4373 64.1439 55.6319C58.2733 62.3852 49.6292 66.6666 39.9998 66.6666C22.3558 66.6666 7.99984 52.3106 7.99984 34.6666C7.99984 17.0225 22.3558 2.66656 39.9998 2.66656C57.6439 2.66656 71.9998 17.0225 71.9998 34.6666C72 42.4547 69.2 49.5987 64.5586 55.1533Z" fill="white"/>
<path d="M8.73734 66.8067C8.38 66.9853 0 71.2614 0 78.6667C0 79.4027 0.597344 80 1.33328 80C2.06922 80 2.66656 79.4027 2.66656 78.6667C2.66656 72.9174 9.85859 69.2282 9.93062 69.1921C10.588 68.8614 10.8547 68.06 10.5239 67.4027C10.1947 66.7453 9.39469 66.48 8.73734 66.8067Z" fill="white"/>
<path d="M21.3786 42.4533C21.4759 43.9292 21.7933 46.5666 22.8066 48.596C23.0412 49.0639 23.5119 49.3333 24.0012 49.3333C24.2012 49.3333 24.4053 49.288 24.5959 49.1933C25.2545 48.8627 25.5227 48.0627 25.1933 47.4039C24.02 45.0572 24 41.3692 24 41.3319C23.9986 40.5972 23.4027 39.9999 22.6667 39.9999C21.932 39.9999 21.3334 39.4013 21.3334 38.6666V33.3333C21.3334 32.9719 21.4775 32.6439 21.712 32.4039C22.2427 33.5946 23.3694 34.6666 25.3334 34.6666C25.8387 34.6666 26.3002 34.3813 26.5267 33.9293C27.6334 31.7146 27.2508 28.4239 26.9134 25.5199C26.8787 25.2239 26.8455 24.9332 26.8134 24.6505C32.9788 26.4732 44.5894 26.4599 50.6667 24.6064V30.6664C50.6667 31.4024 51.2641 31.9997 52 31.9997C52.7359 31.9997 53.3333 31.4024 53.3333 30.6664V22.6664C53.3333 22.2038 53.0933 21.7758 52.7012 21.5318C52.3066 21.2891 51.8172 21.2677 51.4039 21.4732C46.4039 23.9732 30.9292 23.9732 25.9292 21.4732C25.5172 21.2678 25.0252 21.2891 24.6319 21.5318C24.2398 21.7758 23.9998 22.2038 23.9998 22.6664C23.9998 23.5518 24.1278 24.6571 24.2639 25.8278C24.4919 27.7838 24.7639 30.1278 24.4559 31.7452C24.1106 31.4785 24.0092 31.0466 24 30.6664C24 29.9305 23.4027 29.3332 22.6667 29.3332C20.4614 29.3332 18.6667 31.1278 18.6667 33.3332V38.6664C18.6667 40.4214 19.8027 41.916 21.3786 42.4533Z" fill="white"/>
<path d="M44 37.3333H45.3333C45.3333 38.0692 45.9306 38.6666 46.6666 38.6666C47.4025 38.6666 47.9998 38.0692 47.9998 37.3333H49.3331C50.0691 37.3333 50.6664 36.736 50.6664 36C50.6664 35.2641 50.0691 34.6667 49.3331 34.6667H44C43.2641 34.6667 42.6667 35.2641 42.6667 36C42.6667 36.736 43.2641 37.3333 44 37.3333Z" fill="white"/>
<path d="M20 28C20.7359 28 21.3333 27.4027 21.3333 26.6667V25.3334C21.3333 23.832 21.8573 10.6667 40 10.6667C53.224 10.6667 56 18.6427 56 25.3334V30.6667C56 31.4027 56.5973 32 57.3333 32C58.068 32 58.6665 32.5986 58.6665 33.3333V38.6666C58.6665 39.4013 58.068 39.9998 57.3333 39.9998C56.5973 39.9998 56.0012 40.5972 56 41.3319C56 41.3666 55.9826 44.5466 55.0426 46.8798C53.7612 47.1945 50.1241 47.9078 43.7506 47.9852C43.1933 46.4438 41.7306 45.3331 40 45.3331C37.7947 45.3331 36 47.1278 36 49.3331C36 51.5384 37.7947 53.3331 40 53.3331C41.74 53.3331 43.208 52.2105 43.7573 50.6572C52.4173 50.5572 56.2561 49.3198 56.4214 49.2652C56.7573 49.1531 57.0347 48.9131 57.1934 48.5958C58.2067 46.5664 58.524 43.9291 58.6214 42.4531C60.1973 41.9158 61.3334 40.4211 61.3334 38.6664V33.3331C61.3334 31.5944 60.2187 30.1117 58.6667 29.5611V25.3331C58.6667 14.3173 51.8626 8 40 8C31.6467 8 25.5641 10.54 21.9214 15.5494C18.8241 19.8094 18.6667 24.4467 18.6667 25.3334V26.6667C18.6667 27.4027 19.2641 28 20 28ZM40 50.6667C39.2653 50.6667 38.6667 50.0681 38.6667 49.3334C38.6667 48.5988 39.2653 48.0002 40 48.0002C40.7347 48.0002 41.3333 48.5988 41.3333 49.3334C41.3333 50.0681 40.7347 50.6667 40 50.6667Z" fill="white"/>
<path d="M65.0667 48.5333C64.6267 47.9453 63.792 47.8253 63.2 48.2666C63.0973 48.3441 52.7414 56 40 56C27.2906 56 16.9027 48.3427 16.8 48.2667C16.2094 47.8253 15.3747 47.9453 14.9333 48.5347C14.4919 49.1241 14.6106 49.9588 15.2 50.4C15.6494 50.7374 26.3786 58.6667 40 58.6667C53.6214 58.6667 64.3506 50.7374 64.8 50.4C65.3894 49.9586 65.508 49.1227 65.0667 48.5333Z" fill="white"/>
<path d="M37.3333 36C37.3333 35.2641 36.7359 34.6667 36 34.6667H30.6667C29.9308 34.6667 29.3334 35.2641 29.3334 36C29.3334 36.736 29.9308 37.3333 30.6667 37.3333H32C32 38.0692 32.5973 38.6666 33.3333 38.6666C34.0692 38.6666 34.6666 38.0692 34.6666 37.3333H35.9998C36.7359 37.3333 37.3333 36.736 37.3333 36Z" fill="white"/>
</g>
<defs>
<clipPath id="clip0">
<rect width="80" height="80" fill="white"/>
</clipPath>
</defs>
</svg>
