<svg width="80" height="80" viewBox="0 0 80 80" fill="none" xmlns="http://www.w3.org/2000/svg">
<g clip-path="url(#clip0)">
<path d="M78.6666 5.33333C76.4583 5.33072 74.6692 3.54166 74.6666 1.33333C74.6666 0.597005 74.0696 0 73.3333 0C72.597 0 72 0.597005 72 1.33333C71.9974 3.54166 70.2083 5.33072 68 5.33333C67.2636 5.33333 66.6666 5.93033 66.6666 6.66666C66.6666 7.40299 67.2636 7.99999 68 7.99999C70.2083 8.0026 71.9974 9.79166 72 12C72 12.7363 72.597 13.3333 73.3333 13.3333C74.0696 13.3333 74.6666 12.7363 74.6666 12C74.6692 9.79166 76.4583 8.0026 78.6666 7.99999C79.4029 7.99999 80 7.40299 80 6.66666C80 5.93033 79.4029 5.33333 78.6666 5.33333ZM73.3333 8.04101C72.9446 7.51887 72.4811 7.05533 71.9589 6.66666C72.4811 6.27799 72.9446 5.81445 73.3333 5.29231C73.722 5.81445 74.1855 6.27799 74.7076 6.66666C74.1855 7.05533 73.722 7.51887 73.3333 8.04101Z" fill="white"/>
<path d="M33.3333 24C35.5417 24.0026 37.3307 25.7917 37.3333 28C37.3333 28.7363 37.9303 29.3333 38.6667 29.3333C39.403 29.3333 40 28.7363 40 28C40.0026 25.7917 41.7917 24.0026 44 24C44.7363 24 45.3333 23.403 45.3333 22.6667C45.3333 21.9303 44.7363 21.3333 44 21.3333C41.7917 21.3307 40.0026 19.5417 40 17.3333C40 16.597 39.403 16 38.6667 16C37.9303 16 37.3333 16.597 37.3333 17.3333C37.3307 19.5417 35.5417 21.3307 33.3333 21.3333C32.597 21.3333 32 21.9303 32 22.6667C32 23.403 32.597 24 33.3333 24ZM38.6667 21.2923C39.0553 21.8144 39.5189 22.278 40.041 22.6667C39.5189 23.0553 39.0553 23.5189 38.6667 24.041C38.278 23.5189 37.8144 23.0553 37.2923 22.6667C37.8144 22.278 38.278 21.8144 38.6667 21.2923Z" fill="white"/>
<path d="M64.5716 47.9062C61.1439 38.3125 52.0273 31.9336 41.8399 32.0006C31.653 32.0677 22.6211 38.5657 19.3197 48.2038C12.767 49.6217 5.33337 52.2103 5.33337 56.6666C5.33337 61.2311 13.0892 63.8398 19.8946 65.2532C23.6485 74.149 32.3444 79.9505 42 79.9999C51.5664 80.0247 60.222 74.3326 63.9902 65.5397C70.2812 64.358 80 61.7168 80 56.6666C80 51.9492 71.7858 49.3138 64.5716 47.9062ZM20.7526 54.3307C20.8672 52.7741 21.153 51.2357 21.6042 49.7415V49.7402C24.5821 39.97 34.071 33.6842 44.2292 34.7532C54.3867 35.8223 62.3594 43.9453 63.2376 54.1217V54.1237C63.2923 54.7428 63.3333 55.3665 63.3333 56C63.3307 56.7252 63.2871 57.4492 63.2025 58.1699C62.9961 58.1979 62.793 58.2265 62.5807 58.2539C62.2435 58.2968 61.903 58.3392 61.5521 58.3802C61.151 58.4271 60.7376 58.4713 60.319 58.5149C59.959 58.552 59.5983 58.5898 59.2266 58.625C58.7917 58.666 58.3431 58.7037 57.8926 58.7415C57.5124 58.7734 57.1335 58.806 56.7428 58.8353C56.2689 58.8711 55.7812 58.903 55.2943 58.9349C54.9049 58.9603 54.5202 58.9869 54.123 59.0104C53.6107 59.0403 53.0859 59.0657 52.5612 59.0918C52.1673 59.1113 51.7786 59.1321 51.3783 59.1491C50.8242 59.1731 50.2585 59.1914 49.694 59.2109C49.3092 59.2239 48.9297 59.2395 48.541 59.25C47.8997 59.2682 47.248 59.2799 46.5964 59.2923C46.2747 59.2981 45.9577 59.3073 45.6341 59.3118C44.6523 59.3255 43.6628 59.3326 42.6667 59.3333C41.5723 59.3333 40.4896 59.3248 39.4186 59.3086C39.0716 59.3034 38.7344 59.2929 38.3906 59.2858C37.6732 59.2715 36.9557 59.2578 36.2526 59.2363C35.8483 59.2239 35.4564 59.2063 35.0573 59.1914C34.4317 59.1686 33.8034 59.1465 33.1927 59.1178C32.7748 59.0983 32.3718 59.0742 31.9616 59.052C31.3906 59.0215 30.8184 58.9909 30.263 58.955C29.8496 58.929 29.4518 58.8984 29.0482 58.8691C28.5202 58.8307 27.9922 58.7923 27.4818 58.75C27.0853 58.7168 26.7031 58.6803 26.3177 58.6445C25.8294 58.5989 25.3444 58.5527 24.8757 58.5032C24.5007 58.4635 24.14 58.4205 23.7787 58.3782C23.3334 58.3261 22.8933 58.2728 22.4694 58.2168C22.1218 58.1705 21.7865 58.1224 21.4545 58.0742C21.222 58.0397 21.0007 58.0039 20.7761 57.9687C20.7051 57.3144 20.6686 56.6575 20.6667 56C20.6667 55.4368 20.7097 54.8834 20.7526 54.3307ZM42 77.3333C34.0625 77.2955 26.7943 72.8795 23.1022 65.8528C23.8815 65.9824 24.6791 66.1022 25.4877 66.2155C25.7298 66.2493 25.9785 66.278 26.2233 66.3105C26.8073 66.388 27.3946 66.4628 27.9916 66.5319C28.306 66.5677 28.625 66.5996 28.9427 66.6334C29.485 66.6907 30.0293 66.7461 30.5814 66.7968C30.9232 66.8281 31.2676 66.8567 31.6126 66.8854C32.1576 66.9309 32.7064 66.9726 33.2585 67.0104C33.6094 67.0351 33.9603 67.0586 34.3145 67.08C34.8815 67.1145 35.4531 67.1451 36.0287 67.1718C36.3718 67.1881 36.7136 67.2057 37.0593 67.2194C37.6856 67.2441 38.3164 67.2623 38.9499 67.2793C39.2494 67.2871 39.5462 67.2981 39.847 67.304C40.7806 67.3222 41.7207 67.332 42.6667 67.3333C44.127 67.3333 45.5729 67.3046 47.0065 67.2604C47.2259 67.2532 47.4466 67.2487 47.6654 67.2408C49.0293 67.192 50.3743 67.123 51.7018 67.0332C51.9512 67.0169 52.1986 66.9993 52.4466 66.9811C53.7754 66.8854 55.0846 66.7727 56.3639 66.6373C56.5358 66.6191 56.7025 66.5983 56.8737 66.5794C58.1465 66.4388 59.3939 66.2812 60.6042 66.1028C60.6647 66.0944 60.7305 66.0885 60.7904 66.0794C57.0996 73.026 49.8659 77.358 42 77.3333ZM62.8209 63.0455C56.1621 64.1647 49.4193 64.707 42.6667 64.6666C39.7155 64.6666 36.8229 64.5748 34.0306 64.3951C29.6914 64.1367 25.3737 63.597 21.1048 62.7806C12.0521 60.9882 8.00004 58.4186 8.00004 56.6666C8.00004 55.1067 11.2696 52.8613 18.5085 51.1211C18.4948 51.1894 18.4883 51.261 18.4753 51.3294C18.4388 51.5195 18.4154 51.7155 18.3835 51.9075C18.3171 52.304 18.2416 52.6966 18.1934 53.1015C13.8106 53.9694 12 55.0254 12 56.6666C12 58.4433 14.1283 59.5377 19.3464 60.4453C27.0671 61.5768 34.8646 62.0963 42.6667 62C49.9961 62.0638 57.321 61.6204 64.5892 60.6725C72.2741 59.5188 73.3333 58.0657 73.3333 56.6666C73.3333 54.8808 71.1289 53.7545 65.7812 52.8515C65.7311 52.4681 65.651 52.0924 65.5827 51.7135C65.5436 51.4948 65.5137 51.2741 65.4681 51.0566C65.4505 50.9726 65.442 50.8854 65.4238 50.8014C73.5892 52.5716 77.3333 55.0241 77.3333 56.6666C77.3333 58.4909 72.7916 61.2656 62.8209 63.0455ZM18.0586 57.4785C17.1042 57.291 16.168 57.0195 15.2618 56.6666C16.1517 56.3196 17.0703 56.0521 18.0065 55.8659C18.0065 55.9114 18 55.9544 18 56C18 56.4772 18.0215 56.9668 18.0586 57.4785ZM65.9896 55.5989C67.3841 55.8144 68.7532 56.1725 70.0749 56.6673C68.7318 57.1692 67.3398 57.5312 65.9225 57.7474C65.9733 57.1419 66 56.5644 66 56C66 55.8717 65.9922 55.7311 65.9896 55.5989Z" fill="white"/>
<path d="M66.6666 17.3333C66.6666 13.6516 63.6816 10.6666 60 10.6666C56.3183 10.6666 53.3333 13.6516 53.3333 17.3333C53.3333 21.0149 56.3183 23.9999 60 23.9999C63.6803 23.9954 66.6621 21.0136 66.6666 17.3333ZM56 17.3333C56 15.1243 57.791 13.3333 60 13.3333C62.209 13.3333 64 15.1243 64 17.3333C64 19.5423 62.209 21.3333 60 21.3333C57.7916 21.3307 56.0026 19.5416 56 17.3333Z" fill="white"/>
<path d="M77.3333 35.9999C77.3333 33.791 75.5423 31.9999 73.3333 31.9999C71.1243 31.9999 69.3333 33.791 69.3333 35.9999C69.3333 38.2089 71.1243 39.9999 73.3333 39.9999C75.5416 39.9973 77.3307 38.2083 77.3333 35.9999ZM72 35.9999C72 35.2636 72.597 34.6666 73.3333 34.6666C74.0696 34.6666 74.6666 35.2636 74.6666 35.9999C74.6666 36.7363 74.0696 37.3333 73.3333 37.3333C72.5976 37.3326 72.0013 36.7356 72 35.9999Z" fill="white"/>
<path d="M31.9707 15.3781L31.9701 15.3722C31.903 13.494 31.5039 11.6417 30.7904 9.90281L30.7897 9.90151C28.1882 3.61636 21.8965 -0.336762 15.1055 0.0453987C8.31383 0.428211 2.50654 5.06297 0.626984 11.6007L0.626333 11.602C-0.087859 14.0708 -0.193328 16.6756 0.320344 19.1932V19.1938C1.50198 25.0063 5.80341 29.6879 11.4961 31.3553C17.1882 33.0232 23.3359 31.4028 27.4675 27.1463L27.4688 27.145C30.3796 24.1665 32.0065 20.1652 32 16.0005C32 15.854 31.9915 15.7101 31.9818 15.5662L31.9707 15.3781ZM18.3913 2.8898C18.36 2.91389 18.3262 2.93667 18.2949 2.96076C18.0788 3.12482 17.8529 3.28498 17.6166 3.43993C17.5384 3.49136 17.459 3.54214 17.3789 3.59227C17.1283 3.74917 16.8672 3.90021 16.5944 4.04344C16.5508 4.06623 16.5104 4.09097 16.4668 4.1131C16.1439 4.27782 15.8041 4.43016 15.4505 4.57144C15.3828 4.59813 15.3119 4.62222 15.2435 4.64826C14.9414 4.76219 14.6283 4.86636 14.3034 4.96011C14.222 4.9842 14.1419 5.00828 14.0593 5.03042C13.2123 5.25438 12.3457 5.3963 11.472 5.45425C11.3737 5.46141 11.2735 5.46531 11.1738 5.46987C10.7754 5.4894 10.3646 5.49331 9.94078 5.48159C9.85093 5.47899 9.76369 5.48029 9.67255 5.47573C9.16929 5.4536 8.64716 5.40672 8.10745 5.33641C8.08531 5.3338 8.06122 5.3286 8.03909 5.32534C11.0026 3.1131 14.752 2.23094 18.3913 2.8898ZM5.66214 7.60594C5.77411 7.63133 5.87893 7.64565 5.98896 7.66909C6.25458 7.72508 6.51565 7.77456 6.77477 7.82013C6.99417 7.85854 7.21226 7.89565 7.42711 7.92755C7.69143 7.96596 7.94989 7.99786 8.20706 8.02586C8.40823 8.04799 8.60875 8.06948 8.80536 8.0851C9.06317 8.10594 9.31513 8.11961 9.56513 8.13003C9.75002 8.13784 9.93492 8.1463 10.1166 8.14825C10.2018 8.14956 10.293 8.15737 10.3776 8.15737C10.4551 8.15737 10.5228 8.145 10.599 8.1437C11.2266 8.13914 11.8529 8.10138 12.4759 8.03042C12.5515 8.0213 12.6211 8.00763 12.696 7.99721C13.2552 7.92365 13.8099 7.82013 14.3581 7.68862C14.4173 7.6743 14.4798 7.66323 14.5384 7.64826C15.058 7.51414 15.5703 7.35268 16.0729 7.16453C16.1628 7.13133 16.2533 7.10008 16.3412 7.06557C16.806 6.88328 17.2455 6.68471 17.6621 6.47313C17.7442 6.43146 17.8229 6.38914 17.9037 6.34682C18.3151 6.12807 18.707 5.90021 19.0703 5.66323C19.1205 5.63003 19.1667 5.59683 19.2162 5.56362C19.5833 5.31753 19.9297 5.06623 20.2474 4.81297L20.28 4.78823C20.6068 4.52521 20.9017 4.26284 21.1771 4.00373C21.2116 3.97118 21.2474 3.93927 21.2813 3.90672C21.3125 3.87677 21.3483 3.84552 21.3789 3.81558C24.1725 5.04995 26.4596 7.20294 27.8607 9.91713C27.8138 9.94578 27.7689 9.97768 27.7214 10.0063C27.5534 10.1066 27.3828 10.1984 27.2129 10.2928C26.9902 10.4171 26.7682 10.5395 26.5449 10.6535C26.3665 10.744 26.1888 10.8273 26.0111 10.9113C25.7956 11.0122 25.5814 11.1105 25.3691 11.2016C25.1901 11.2778 25.0137 11.3494 24.8385 11.4184C24.6315 11.4998 24.4277 11.5753 24.2272 11.6456C24.0586 11.7042 23.8913 11.7615 23.7285 11.8123C23.5319 11.8742 23.3431 11.9269 23.1563 11.9764C23.0065 12.0161 22.8555 12.0571 22.7136 12.089C22.5287 12.13 22.3594 12.158 22.1908 12.1854C22.0684 12.2049 21.9408 12.229 21.8288 12.2407C21.6712 12.2557 21.513 12.2615 21.3555 12.2589C21.2747 12.2583 21.1823 12.2674 21.11 12.2609C20.933 12.2531 20.7585 12.2121 20.5964 12.1411C20.3392 12.0128 20.0742 11.9015 19.8027 11.8071C19.7162 11.7765 19.6289 11.757 19.5423 11.7309C19.3652 11.6762 19.1869 11.6235 19.0091 11.5844C18.9056 11.5623 18.8014 11.548 18.6973 11.5304C18.5345 11.5024 18.3718 11.4757 18.207 11.4588C18.0964 11.4471 17.9844 11.4406 17.8724 11.4334C17.7116 11.423 17.5488 11.4145 17.3854 11.4126C17.3392 11.4119 17.2943 11.4067 17.2481 11.4067C17.2044 11.4067 17.1569 11.4132 17.1133 11.4139C16.7044 11.4184 16.2865 11.4399 15.8542 11.4783C15.7871 11.4842 15.7149 11.492 15.6472 11.4985C15.2031 11.5415 14.7487 11.5923 14.2702 11.6489C12.6335 11.8683 10.9844 11.9861 9.33336 12.0005C8.87698 12.0005 8.41995 11.9725 7.96682 11.9334C7.86396 11.9249 7.76174 11.9165 7.66018 11.9061C7.22268 11.8611 6.78779 11.8045 6.36396 11.7329C6.30471 11.7231 6.24742 11.7108 6.18753 11.7003C5.80211 11.632 5.42646 11.5545 5.06057 11.4718C4.97464 11.4523 4.88675 11.4334 4.80211 11.4132C4.41018 11.3195 4.03128 11.2212 3.67386 11.119L3.61136 11.1007C4.11396 9.83901 4.80537 8.66062 5.66214 7.60594ZM2.85485 17.6723L2.77086 17.6671C2.70185 17.1144 2.6667 16.5578 2.6667 16.0005C2.66735 15.2186 2.73831 14.438 2.87893 13.6684C3.00914 13.7062 3.13414 13.7316 3.26305 13.7667C3.50133 13.8318 3.73636 13.8904 3.97138 13.9484C4.37698 14.0486 4.77737 14.1385 5.1732 14.2173C5.39912 14.2622 5.62503 14.3071 5.84768 14.3449C6.26305 14.4158 6.6693 14.4705 7.07294 14.5167C7.25979 14.5389 7.44989 14.5669 7.63414 14.5838C8.21291 14.6352 8.78127 14.6671 9.33336 14.6671C11.0892 14.6522 12.8425 14.5285 14.5827 14.2973C16.7077 14.046 18.1113 13.8794 19.4037 14.5265C19.7044 14.673 20.0241 14.7785 20.3535 14.839C20.459 14.8598 20.5781 14.8566 20.6875 14.8696C20.9186 14.9061 21.1511 14.9275 21.3848 14.9341C21.4004 14.9341 21.418 14.9308 21.4336 14.9301C21.5645 14.9295 21.7044 14.908 21.8386 14.8995C22.0892 14.8839 22.3386 14.8716 22.599 14.8318C22.7598 14.8078 22.9245 14.7667 23.0879 14.7342C23.3327 14.6854 23.5755 14.6398 23.8242 14.5747C24.0007 14.5285 24.1777 14.4705 24.3548 14.4165C24.5957 14.3442 24.8346 14.2732 25.0755 14.1886C25.2598 14.1242 25.4401 14.0512 25.6237 13.9809C25.8561 13.8904 26.0872 13.8019 26.3164 13.7036C26.502 13.6242 26.681 13.5415 26.8633 13.4575C27.084 13.3559 27.3014 13.255 27.5156 13.1482C27.6953 13.0591 27.8659 12.9692 28.0397 12.8774C28.2441 12.7693 28.4447 12.6626 28.6393 12.5519C28.7057 12.5148 28.7786 12.479 28.8438 12.4412C29.0358 13.1489 29.1699 13.8716 29.2435 14.6014C29.0866 14.6736 28.9323 14.7479 28.7721 14.8175C28.5397 14.9171 28.3066 15.0154 28.0677 15.1085C27.7546 15.2316 27.4349 15.3475 27.1113 15.4594C26.8685 15.5441 26.627 15.6287 26.3789 15.7075C26.0384 15.8156 25.6908 15.9152 25.3418 16.0135C25.097 16.0818 24.8542 16.1535 24.6055 16.2173C24.2285 16.3143 23.8444 16.4015 23.4596 16.4881C23.2285 16.5402 23.0007 16.5962 22.7676 16.6443C22.3164 16.7381 21.8587 16.8201 21.4004 16.9009C21.2266 16.9314 21.0553 16.9673 20.8802 16.9959C20.2429 17.1007 19.6022 17.1951 18.957 17.2778C18.8477 17.2921 18.7376 17.3019 18.6283 17.3149C18.0905 17.3813 17.5514 17.4432 17.013 17.4953C16.8047 17.5154 16.5977 17.5304 16.3893 17.5486C15.9505 17.587 15.5111 17.6248 15.0749 17.6554C14.8451 17.671 14.6172 17.6834 14.388 17.6971C13.9753 17.7225 13.5625 17.7466 13.155 17.7648C12.9258 17.7752 12.6999 17.783 12.4733 17.7915C12.0716 17.8064 11.6719 17.8195 11.278 17.8292C11.0567 17.8344 10.8379 17.8383 10.6198 17.8416C10.2279 17.8481 9.83987 17.8527 9.45901 17.8546C9.25393 17.8553 9.0508 17.8559 8.84963 17.8553C8.46161 17.8546 8.08075 17.852 7.70771 17.8468C7.52932 17.8442 7.35094 17.8423 7.17646 17.839C6.79234 17.8318 6.4206 17.8227 6.05602 17.8123C5.90432 17.8078 5.74938 17.8038 5.60159 17.7993C5.22919 17.7863 4.87372 17.7719 4.52607 17.757C4.40302 17.7518 4.27281 17.7472 4.15302 17.7413C3.78388 17.7238 3.43623 17.7049 3.10094 17.686C3.02086 17.6814 2.93297 17.6769 2.85485 17.6723ZM16 29.3338C14.0586 29.3318 12.1419 28.9041 10.3841 28.0799C11.0059 28.1528 11.6289 28.2114 12.2487 28.2596C12.3281 28.2661 12.4063 28.2732 12.4857 28.2791C13.2904 28.337 14.0847 28.3715 14.8548 28.3728C14.8789 28.3735 14.9043 28.3761 14.9278 28.3761L14.9707 28.3754C15.0163 28.3748 15.0606 28.3728 15.1061 28.3722C15.4284 28.3702 15.7474 28.3644 16.0586 28.3501L16.125 28.3455C16.4557 28.3292 16.7813 28.3077 17.0964 28.2758C17.1309 28.2726 17.1621 28.2667 17.1966 28.2628C17.4974 28.2309 17.7936 28.1951 18.0775 28.1476C18.3932 28.0955 18.6986 28.0337 18.9902 27.9607C19.6224 27.8051 20.2624 27.6847 20.9076 27.5994C20.9356 27.5962 20.9649 27.5903 20.9929 27.5864C21.6022 27.507 22.1979 27.4614 22.7754 27.436C22.8047 27.4347 22.8353 27.4327 22.8646 27.4314C20.7936 28.6821 18.4193 29.3403 16 29.3338ZM25.9805 24.8299L25.9277 24.8273C25.4863 24.7934 25.0065 24.7706 24.5026 24.7576C24.4024 24.7544 24.3073 24.7518 24.2051 24.7505C23.6953 24.7426 23.1641 24.7511 22.6094 24.7758C22.502 24.7811 22.3965 24.7876 22.2878 24.7941C21.7149 24.8279 21.1283 24.88 20.5274 24.9614C20.4453 24.9725 20.3639 24.9874 20.2813 24.9998C19.6413 25.0936 18.9942 25.2107 18.3431 25.3735C17.8893 25.4829 17.4284 25.5623 16.9636 25.6105C16.7585 25.6326 16.5319 25.6372 16.3171 25.6515C16.0169 25.6723 15.7233 25.699 15.4082 25.7049C15.1478 25.7101 14.8737 25.7003 14.6055 25.6964C14.3158 25.6925 14.03 25.6945 13.7324 25.6814C13.4466 25.6691 13.1563 25.6456 12.8666 25.6255C12.5768 25.6059 12.2891 25.5896 11.9987 25.5636C11.7051 25.5369 11.4141 25.5031 11.1224 25.4705C10.834 25.4393 10.5443 25.41 10.2598 25.3735C9.97984 25.3383 9.70836 25.2986 9.43427 25.2602C9.14521 25.2192 8.85354 25.1788 8.57294 25.1359C8.32294 25.0968 8.08531 25.0564 7.84508 25.0167C7.55797 24.9686 7.26956 24.921 6.99937 24.8728C6.79169 24.8357 6.59768 24.7993 6.40107 24.7622C6.22398 24.729 6.05276 24.6964 5.88674 24.6639C4.79951 23.4008 3.95771 21.9464 3.40433 20.3742C3.80537 20.395 4.22919 20.4145 4.6706 20.4327C4.8275 20.4386 4.99547 20.4432 5.15693 20.449C5.54625 20.4633 5.94534 20.4757 6.3594 20.4855C6.60615 20.492 6.85159 20.4972 7.10614 20.5018C7.54885 20.5096 8.00393 20.5141 8.46943 20.5161C8.63088 20.5167 8.77997 20.5213 8.94403 20.5213C9.03127 20.5213 9.12698 20.5174 9.21487 20.5174C9.86721 20.5154 10.5397 20.5057 11.2246 20.4894C11.4479 20.4842 11.666 20.4796 11.8919 20.4731C12.6569 20.4497 13.4349 20.4152 14.2259 20.3702C14.4278 20.3585 14.6296 20.3442 14.8327 20.3312C15.6667 20.2771 16.5072 20.214 17.3542 20.13C17.4134 20.1242 17.472 20.117 17.5306 20.1111C18.3633 20.0265 19.1973 19.9217 20.0293 19.8045C20.2077 19.7791 20.3848 19.7557 20.5625 19.729C21.4043 19.602 22.2383 19.4562 23.0651 19.2902C23.2331 19.2563 23.3991 19.2199 23.5664 19.1841C24.4232 19.0024 25.2702 18.8045 26.0931 18.574C26.1224 18.5662 26.1497 18.5564 26.179 18.548C26.9785 18.3227 27.7513 18.0656 28.5052 17.7889C28.6471 17.7368 28.791 17.6873 28.9316 17.6333C29.0352 17.5936 29.1445 17.5591 29.2474 17.518C28.9395 20.2342 27.7982 22.7882 25.9805 24.8299Z" fill="white"/>
<path d="M57.8118 53.537C57.9128 54.1861 58.4707 54.6653 59.1276 54.6666C59.1966 54.6666 59.265 54.6614 59.3333 54.651C60.0612 54.5383 60.5599 53.8574 60.4473 53.1295C60.3288 52.3626 60.1621 51.6041 59.9492 50.858C59.7474 50.1503 59.0098 49.7402 58.3014 49.942C57.5937 50.1438 57.1836 50.8821 57.3854 51.5898C57.5677 52.2297 57.7103 52.8795 57.8118 53.537Z" fill="white"/>
<path d="M42 40C47.1068 40.0104 51.9036 42.4472 54.9238 46.5651C55.3607 47.1536 56.1901 47.2793 56.7819 46.847C57.3737 46.414 57.5045 45.5853 57.0761 44.9909C53.5534 40.1875 47.957 37.345 42 37.3333C41.2637 37.3333 40.6667 37.9303 40.6667 38.6666C40.6667 39.403 41.2637 40 42 40Z" fill="white"/>
</g>
<defs>
<clipPath id="clip0">
<rect width="80" height="80" fill="white"/>
</clipPath>
</defs>
</svg>
