<svg width="80" height="80" viewBox="0 0 80 80" fill="none" xmlns="http://www.w3.org/2000/svg">
<path d="M68.2843 11.7157C60.7294 4.16077 50.6842 0 40 0C35.3345 0 30.7788 0.792847 26.4374 2.35901L25.5481 0.827637C25.2686 0.34668 24.754 0.0500487 24.1974 0.0500487C24.1962 0.0500487 24.1943 0.0500487 24.1931 0.0500487C23.6353 0.0518798 23.1201 0.350952 22.8424 0.834961L16.6632 11.6046C16.3855 12.0892 16.3873 12.6849 16.6675 13.1671C16.947 13.6487 17.4622 13.9447 18.0182 13.9447H18.0225L30.4388 13.9111C30.9973 13.9093 31.5125 13.6102 31.7902 13.1262C32.0679 12.6422 32.066 12.0465 31.7859 11.5637L31.2518 10.6445C34.0808 9.80164 37.016 9.375 40 9.375C56.8866 9.375 70.625 23.1134 70.625 40C70.625 56.8866 56.8866 70.625 40 70.625C23.1134 70.625 9.375 56.8866 9.375 40C9.375 39.137 8.67554 38.4375 7.8125 38.4375H1.5625C0.699463 38.4375 0 39.137 0 40C0 50.6842 4.16077 60.7294 11.7157 68.2843C19.2706 75.8392 29.3158 80 40 80C50.6842 80 60.7294 75.8392 68.2843 68.2843C75.8392 60.7294 80 50.6842 80 40C80 29.3158 75.8392 19.2706 68.2843 11.7157ZM40 76.875C20.191 76.875 3.97949 61.1731 3.15796 41.5625H6.2854C6.66687 49.9908 10.13 57.8601 16.1353 63.8647C22.5098 70.2393 30.9851 73.75 40 73.75C49.0149 73.75 57.4902 70.2393 63.8647 63.8647C70.2393 57.4902 73.75 49.0149 73.75 40C73.75 30.9851 70.2393 22.5098 63.8647 16.1353C57.4902 9.76074 49.0149 6.25 40 6.25C36.0175 6.25 32.1136 6.9397 28.3978 8.30017C27.9639 8.45886 27.6227 8.80188 27.4658 9.23645C27.3083 9.67102 27.3517 10.1526 27.5842 10.5524L27.724 10.7935L20.7202 10.8124L24.2053 4.73755L24.4019 5.07507C24.7906 5.74524 25.6128 6.02905 26.3318 5.74097C30.6793 4.00513 35.2777 3.125 40 3.125C60.3333 3.125 76.875 19.6667 76.875 40C76.875 60.3333 60.3333 76.875 40 76.875Z" fill="white"/>
<path d="M59.2243 20.7758C58.6151 20.1666 57.6312 20.1685 57.0209 20.777C56.4099 21.3849 56.4105 22.3761 57.0172 22.9877C57.0191 22.9895 57.0276 22.9981 57.0288 22.9993C57.3334 23.3032 57.7307 23.4552 58.1287 23.4552C58.5278 23.4552 58.927 23.3026 59.2328 22.9981C59.8438 22.3902 59.8432 21.3989 59.2365 20.7868C59.2346 20.7855 59.2261 20.777 59.2243 20.7758Z" fill="white"/>
<path d="M53.8367 18.3685C54.2566 17.6147 53.9862 16.6632 53.2324 16.2427C48.1696 13.4192 42.1997 12.2851 36.4221 13.0475C30.4535 13.836 25.0427 16.5082 20.7758 20.7757C15.6403 25.9106 12.8125 32.738 12.8125 40C12.8125 47.2619 15.6403 54.0893 20.7758 59.2242C25.9106 64.3597 32.738 67.1875 40 67.1875C47.262 67.1875 54.0894 64.3597 59.2242 59.2242C68.0591 50.39 69.7504 36.7438 63.3368 26.04C62.8937 25.2997 61.9336 25.0598 61.1932 25.5029C60.4529 25.9466 60.2124 26.9061 60.6561 27.6465C66.3318 37.1185 64.834 49.1955 57.0148 57.0147C52.4701 61.5594 46.4276 64.0625 40 64.0625C33.5724 64.0625 27.5299 61.5594 22.9852 57.0147C18.4406 52.4701 15.9375 46.4276 15.9375 40C15.9375 33.5724 18.4406 27.5299 22.9852 22.9852C30.5573 15.4132 42.3694 13.7634 51.7108 18.9721C52.4646 19.3921 53.4161 19.1217 53.8367 18.3685Z" fill="white"/>
<path d="M41.5826 21.3281V20.1562C41.5826 19.2932 40.8826 18.5938 40.0201 18.5938C39.1571 18.5938 38.4576 19.2932 38.4576 20.1562V21.3281C38.4576 22.1912 39.1571 22.8906 40.0201 22.8906C40.8826 22.8906 41.5826 22.1912 41.5826 21.3281Z" fill="white"/>
<path d="M38.4174 58.6719V59.8438C38.4174 60.7068 39.1174 61.4062 39.9799 61.4062C40.8429 61.4062 41.5424 60.7068 41.5424 59.8438V58.6719C41.5424 57.8088 40.8429 57.1094 39.9799 57.1094C39.1174 57.1094 38.4174 57.8088 38.4174 58.6719Z" fill="white"/>
<path d="M57.1094 40.0201C57.1094 40.8826 57.8088 41.5826 58.6719 41.5826H59.8438C60.7068 41.5826 61.4062 40.8826 61.4062 40.0201C61.4062 39.1571 60.7068 38.4576 59.8438 38.4576H58.6719C57.8088 38.4576 57.1094 39.1571 57.1094 40.0201Z" fill="white"/>
<path d="M20.1562 38.4174C19.2932 38.4174 18.5938 39.1174 18.5938 39.9799C18.5938 40.8429 19.2932 41.5424 20.1562 41.5424H21.3281C22.1912 41.5424 22.8906 40.8429 22.8906 39.9799C22.8906 39.1174 22.1912 38.4174 21.3281 38.4174H20.1562Z" fill="white"/>
<path d="M49.375 40C49.375 39.137 48.6755 38.4375 47.8125 38.4375H40.647L28.9325 26.723C28.3228 26.1127 27.3334 26.1127 26.723 26.723C26.1127 27.3328 26.1127 28.3221 26.723 28.9325L38.8953 41.1047C39.1882 41.3977 39.5856 41.5625 40 41.5625H47.8125C48.6755 41.5625 49.375 40.863 49.375 40Z" fill="white"/>
</svg>
