<svg width="80" height="80" viewBox="0 0 80 80" fill="none" xmlns="http://www.w3.org/2000/svg">
<g clip-path="url(#clip0)">
<path d="M79.5488 1.62386C79.4637 0.935793 78.9218 0.393886 78.234 0.30881C72.0351 -0.457883 65.6385 0.210428 59.7335 2.24076C53.828 4.2713 48.3722 7.67858 43.9565 12.0943L33.8799 22.171L19.3345 24.0469C19.0028 24.0896 18.695 24.241 18.4585 24.4773L4.43444 38.5013C4.03748 38.8983 3.89313 39.4827 4.05986 40.019C4.22618 40.5553 4.67636 40.955 5.22834 41.0573L15.832 43.0213L17.9156 45.1048L13.4797 47.5069C13.06 47.7341 12.7721 48.1464 12.7034 48.6188C12.6346 49.0911 12.7929 49.5681 13.1303 49.9056L29.9516 66.7269C30.2373 67.0125 30.6228 67.1698 31.0209 67.1698C31.0931 67.1698 31.1661 67.1646 31.2387 67.1541C31.711 67.0853 32.1233 66.7974 32.3505 66.3777L34.7528 61.9418L36.8364 64.0254L38.8004 74.6291C38.9028 75.1813 39.3024 75.6312 39.8386 75.7978C39.986 75.8435 40.137 75.8657 40.287 75.8657C40.6821 75.8657 41.0684 75.7107 41.3565 75.4228L55.3805 61.3987C55.6168 61.1624 55.7682 60.8544 55.811 60.523L57.6871 45.9774L67.7637 35.9005C72.1794 31.4848 75.5867 26.0292 77.6173 20.1237C79.6474 14.2188 80.3153 7.82132 79.5488 1.62386ZM16.0625 39.989L8.60538 38.6078L20.2324 26.9804L30.3794 25.6718L16.0625 39.989ZM30.6566 63.1557L16.7019 49.2012L20.1463 47.336L32.5217 59.7115L30.6566 63.1557ZM52.8772 59.6252L41.25 71.2524L39.8687 63.7956L54.1858 49.4784L52.8772 59.6252ZM65.625 33.7627L38.2373 61.1504L18.7073 41.6203L46.0949 14.2325C50.0742 10.253 54.9658 7.16107 60.2649 5.26319C60.9494 8.78961 62.6737 12.061 65.2353 14.6224C67.7966 17.1839 71.0678 18.9082 74.5944 19.5929C72.6964 24.8916 69.6042 29.7833 65.625 33.7627ZM75.5047 16.6876C72.4397 16.1648 69.5887 14.6992 67.3734 12.4842C65.1582 10.2692 63.6928 7.41791 63.17 4.35295C67.5531 3.17176 72.1573 2.76896 76.6754 3.18225C77.0889 7.70035 76.6859 12.3045 75.5047 16.6876Z" fill="white"/>
<path d="M44.6196 22.2656C41.0432 25.8422 41.0432 31.6614 44.6196 35.238C46.408 37.0265 48.7567 37.9204 51.106 37.9204C53.4544 37.9204 55.8041 37.0261 57.5921 35.238H57.5923C61.1687 31.6616 61.1687 25.8422 57.5921 22.2656C54.0155 18.6891 48.196 18.6893 44.6196 22.2656ZM55.4539 33.0997C53.0561 35.4973 49.1551 35.4969 46.758 33.0997C44.3604 30.7022 44.3604 26.8012 46.758 24.4037C47.9565 23.205 49.5313 22.6059 51.1058 22.6059C52.6805 22.6059 54.255 23.2052 55.4535 24.4037C57.8512 26.8012 57.8512 30.7022 55.4539 33.0997Z" fill="white"/>
<path d="M19.8306 60.3123C19.2399 59.7218 18.2827 59.7218 17.6922 60.3123L4.71951 73.2848C4.12902 73.8753 4.12902 74.8327 4.71951 75.423C5.01486 75.7182 5.40194 75.8659 5.78881 75.8659C6.17568 75.8659 6.56276 75.7184 6.85811 75.423L19.8306 62.4505C20.4209 61.8602 20.4209 60.9028 19.8306 60.3123Z" fill="white"/>
<path d="M21.8261 64.4464L15.9814 70.2911C15.3909 70.8816 15.3909 71.839 15.9814 72.4293C16.2768 72.7244 16.6638 72.8722 17.0507 72.8722C17.4376 72.8722 17.8247 72.7246 18.12 72.4293L23.9647 66.5846C24.5552 65.9941 24.5552 65.0367 23.9647 64.4464C23.374 63.8559 22.4168 63.8559 21.8261 64.4464Z" fill="white"/>
<path d="M13.9353 72.9637C13.3027 72.9637 12.7253 73.3717 12.5116 73.9662C12.2943 74.5706 12.4965 75.2648 12.9987 75.6629C13.5122 76.0702 14.2619 76.0923 14.7986 75.7164C15.3711 75.3152 15.6034 74.545 15.3306 73.8971C15.1062 73.3377 14.5353 72.9637 13.9353 72.9637Z" fill="white"/>
<path d="M15.3306 73.8971C15.3689 73.988 15.2943 73.8064 15.3306 73.8971V73.8971Z" fill="white"/>
<path d="M9.65876 76.6139L8.85397 77.4187C8.26327 78.0092 8.26327 78.9666 8.85376 79.5571C9.14911 79.8522 9.53599 80 9.92306 80C10.3099 80 10.697 79.8524 10.9922 79.5573L11.797 78.7525C12.3877 78.162 12.3876 77.2046 11.7972 76.6143C11.2067 76.024 10.2491 76.0234 9.65876 76.6139Z" fill="white"/>
<path d="M8.56849 63.3059C7.9778 62.7154 7.02059 62.7154 6.4301 63.3059L0.585448 69.1506C-0.00504513 69.741 -0.00504513 70.6985 0.585448 71.2887C0.880795 71.5839 1.26787 71.7317 1.65475 71.7317C2.04162 71.7317 2.4287 71.5841 2.72404 71.2887L8.5687 65.4441C9.15899 64.8538 9.15899 63.8964 8.56849 63.3059Z" fill="white"/>
<path d="M10.9817 62.7257C11.5951 62.5715 12.0556 62.0368 12.1195 61.4078C12.1822 60.7919 11.8435 60.1883 11.2938 59.9105C10.7101 59.6154 9.9787 59.7386 9.5259 60.2117C9.04105 60.7184 8.97109 61.5072 9.35414 62.0937C9.34204 62.0755 9.33277 62.0622 9.35716 62.0995C9.38257 62.1368 9.3739 62.1233 9.3618 62.1054C9.71803 62.6229 10.3682 62.8799 10.9817 62.7257Z" fill="white"/>
<path d="M14.8917 59.1213L15.6963 58.3165C16.2868 57.726 16.2868 56.7686 15.6961 56.1783C15.105 55.5876 14.1476 55.5878 13.5579 56.1785L12.7533 56.9833C12.1629 57.5738 12.1629 58.5312 12.7535 59.1215C13.0489 59.4166 13.4358 59.5642 13.8226 59.5642C14.2095 59.5642 14.5966 59.4166 14.8917 59.1213Z" fill="white"/>
</g>
<defs>
<clipPath id="clip0">
<rect width="80" height="80" fill="white"/>
</clipPath>
</defs>
</svg>
