<svg width="155" height="40" viewBox="0 0 155 40" fill="none" xmlns="http://www.w3.org/2000/svg">
<path d="M3.89195 22.3767C6.95795 17.9633 8.76144 15.12 10.0763 13.0187C5.02312 13.4657 0.179504 19.7534 0.179504 19.7534L3.5149 23.0887C3.61168 22.8421 3.73526 22.6026 3.89195 22.3767Z" fill="white"/>
<path d="M16.9148 36.4887L20.248 39.8218C20.248 39.8218 26.5355 34.9786 26.9825 29.9255C24.882 31.2399 22.0396 33.0427 17.6248 36.1095C17.4014 36.2645 17.1634 36.391 16.9148 36.4887Z" fill="white"/>
<path d="M11.8465 34.7654C11.2744 34.9966 10.712 35.2423 10.1257 35.4382C8.5598 35.9616 6.94703 36.3152 5.31188 36.5409C4.62648 36.6355 3.93474 36.7157 3.24183 36.7683C3.24843 36.6827 3.25477 36.5971 3.26202 36.5117C3.405 34.8456 3.65848 33.1882 4.06801 31.5658C4.26534 30.7829 4.51714 30.0218 4.78744 29.2617C4.95553 28.7892 5.16527 28.3369 5.37683 27.8847L5.01013 27.5182C4.19456 28.0661 3.48522 28.7584 2.88328 29.5416C1.99214 30.7013 1.32421 32.0152 0.857225 33.3997C0.355564 34.8863 0.0564048 36.4608 0.00982291 38.0304C0.00322381 38.2508 -0.0119153 38.4761 0.0222447 38.6949C0.0662388 38.9775 0.190328 39.245 0.376785 39.4617C0.561301 39.6761 0.804174 39.838 1.07331 39.9248C1.29924 39.9977 1.52645 39.999 1.76078 39.9971C3.18567 39.9852 4.63269 39.7377 5.99663 39.3325C8.49122 38.5913 11.0096 37.1969 12.4857 34.9936L12.1289 34.637C12.0353 34.681 11.9415 34.7241 11.8465 34.7654Z" fill="white"/>
<path d="M39.5951 0.407452C39.5951 0.407452 39.5948 0.407323 39.5946 0.407064C39.335 0.147629 38.9832 0.00231934 38.617 0.00231934C38.608 0.00231934 38.5988 0.00244873 38.5897 0.00257812C34.1373 0.0899192 23.1521 0.9227 17.3182 6.75682C14.6699 9.40513 13.8092 10.7837 11.9226 13.8048C10.564 15.9799 8.70394 18.9592 5.3045 23.8521C4.92266 24.402 4.98904 25.1465 5.46249 25.6196L14.3814 34.5387C14.649 34.8064 15.0034 34.944 15.3601 34.944C15.6343 34.944 15.9098 34.8628 16.1489 34.6968C21.0436 31.2966 24.0217 29.4369 26.1961 28.0788C29.2169 26.1923 30.5957 25.3314 33.2446 22.6828C39.0888 16.8383 39.9157 5.86038 39.9996 1.41168C40.007 1.03605 39.8608 0.673487 39.5951 0.407452ZM29.2673 17.2361C27.4717 19.0315 24.5608 19.0315 22.7652 17.2361C20.9693 15.4405 20.9696 12.5297 22.7655 10.7343C24.5608 8.93867 27.4717 8.93841 29.2673 10.7339C31.0623 12.5294 31.0626 15.4407 29.2673 17.2361Z" fill="white"/>
<path d="M58.008 17.192C57.1227 17.192 56.264 17.0747 55.432 16.84C54.6107 16.5947 53.9493 16.28 53.448 15.896L54.328 13.944C54.808 14.296 55.3787 14.5787 56.04 14.792C56.7013 15.0053 57.3627 15.112 58.024 15.112C58.76 15.112 59.304 15.0053 59.656 14.792C60.008 14.568 60.184 14.2747 60.184 13.912C60.184 13.6453 60.0773 13.4267 59.864 13.256C59.6613 13.0747 59.3947 12.9307 59.064 12.824C58.744 12.7173 58.3067 12.6 57.752 12.472C56.8987 12.2693 56.2 12.0667 55.656 11.864C55.112 11.6613 54.6427 11.336 54.248 10.888C53.864 10.44 53.672 9.84267 53.672 9.096C53.672 8.44533 53.848 7.85867 54.2 7.336C54.552 6.80267 55.08 6.38133 55.784 6.072C56.4987 5.76267 57.368 5.608 58.392 5.608C59.1067 5.608 59.8053 5.69333 60.488 5.864C61.1707 6.03467 61.768 6.28 62.28 6.6L61.48 8.568C60.4453 7.98133 59.4107 7.688 58.376 7.688C57.6507 7.688 57.112 7.80533 56.76 8.04C56.4187 8.27467 56.248 8.584 56.248 8.968C56.248 9.352 56.4453 9.64 56.84 9.832C57.2453 10.0133 57.8587 10.1947 58.68 10.376C59.5333 10.5787 60.232 10.7813 60.776 10.984C61.32 11.1867 61.784 11.5067 62.168 11.944C62.5627 12.3813 62.76 12.9733 62.76 13.72C62.76 14.36 62.5787 14.9467 62.216 15.48C61.864 16.0027 61.3307 16.4187 60.616 16.728C59.9013 17.0373 59.032 17.192 58.008 17.192ZM72.5791 5.8C73.5711 5.8 74.4298 5.96533 75.1551 6.296C75.8911 6.62667 76.4565 7.096 76.8511 7.704C77.2458 8.312 77.4431 9.032 77.4431 9.864C77.4431 10.6853 77.2458 11.4053 76.8511 12.024C76.4565 12.632 75.8911 13.1013 75.1551 13.432C74.4298 13.752 73.5711 13.912 72.5791 13.912H70.3231V17H67.7311V5.8H72.5791ZM72.4351 11.8C73.2138 11.8 73.8058 11.6347 74.2111 11.304C74.6165 10.9627 74.8191 10.4827 74.8191 9.864C74.8191 9.23467 74.6165 8.75467 74.2111 8.424C73.8058 8.08267 73.2138 7.912 72.4351 7.912H70.3231V11.8H72.4351ZM89.3071 14.6H84.1071L83.1151 17H80.4591L85.4511 5.8H88.0111L93.0191 17H90.2991L89.3071 14.6ZM88.4911 12.632L86.7151 8.344L84.9391 12.632H88.4911ZM102.585 17.192C101.444 17.192 100.409 16.9467 99.4809 16.456C98.5635 15.9547 97.8382 15.2667 97.3049 14.392C96.7822 13.5067 96.5209 12.5093 96.5209 11.4C96.5209 10.2907 96.7822 9.29867 97.3049 8.424C97.8382 7.53867 98.5635 6.85067 99.4809 6.36C100.409 5.85867 101.449 5.608 102.601 5.608C103.572 5.608 104.446 5.77867 105.225 6.12C106.014 6.46133 106.676 6.952 107.209 7.592L105.545 9.128C104.788 8.25333 103.849 7.816 102.729 7.816C102.036 7.816 101.417 7.97067 100.873 8.28C100.329 8.57867 99.9022 9 99.5929 9.544C99.2942 10.088 99.1449 10.7067 99.1449 11.4C99.1449 12.0933 99.2942 12.712 99.5929 13.256C99.9022 13.8 100.329 14.2267 100.873 14.536C101.417 14.8347 102.036 14.984 102.729 14.984C103.849 14.984 104.788 14.5413 105.545 13.656L107.209 15.192C106.676 15.8427 106.014 16.3387 105.225 16.68C104.436 17.0213 103.556 17.192 102.585 17.192ZM120.831 14.92V17H112.159V5.8H120.623V7.88H114.735V10.312H119.935V12.328H114.735V14.92H120.831ZM59.752 37.192C58.5893 37.192 57.5387 36.9413 56.6 36.44C55.672 35.9387 54.9413 35.2507 54.408 34.376C53.8853 33.4907 53.624 32.4987 53.624 31.4C53.624 30.3013 53.8853 29.3147 54.408 28.44C54.9413 27.5547 55.672 26.8613 56.6 26.36C57.5387 25.8587 58.5893 25.608 59.752 25.608C60.9147 25.608 61.96 25.8587 62.888 26.36C63.816 26.8613 64.5467 27.5547 65.08 28.44C65.6133 29.3147 65.88 30.3013 65.88 31.4C65.88 32.4987 65.6133 33.4907 65.08 34.376C64.5467 35.2507 63.816 35.9387 62.888 36.44C61.96 36.9413 60.9147 37.192 59.752 37.192ZM59.752 34.984C60.4133 34.984 61.0107 34.8347 61.544 34.536C62.0773 34.2267 62.4933 33.8 62.792 33.256C63.1013 32.712 63.256 32.0933 63.256 31.4C63.256 30.7067 63.1013 30.088 62.792 29.544C62.4933 29 62.0773 28.5787 61.544 28.28C61.0107 27.9707 60.4133 27.816 59.752 27.816C59.0907 27.816 58.4933 27.9707 57.96 28.28C57.4267 28.5787 57.0053 29 56.696 29.544C56.3973 30.088 56.248 30.7067 56.248 31.4C56.248 32.0933 56.3973 32.712 56.696 33.256C57.0053 33.8 57.4267 34.2267 57.96 34.536C58.4933 34.8347 59.0907 34.984 59.752 34.984ZM71.028 25.8H76.116C77.332 25.8 78.404 26.0347 79.332 26.504C80.2707 26.9627 80.996 27.6133 81.508 28.456C82.0307 29.2987 82.292 30.28 82.292 31.4C82.292 32.52 82.0307 33.5013 81.508 34.344C80.996 35.1867 80.2707 35.8427 79.332 36.312C78.404 36.7707 77.332 37 76.116 37H71.028V25.8ZM75.988 34.872C77.108 34.872 77.9987 34.5627 78.66 33.944C79.332 33.3147 79.668 32.4667 79.668 31.4C79.668 30.3333 79.332 29.4907 78.66 28.872C77.9987 28.2427 77.108 27.928 75.988 27.928H73.62V34.872H75.988ZM87.4468 25.8H92.5348C93.7508 25.8 94.8228 26.0347 95.7508 26.504C96.6894 26.9627 97.4148 27.6133 97.9268 28.456C98.4494 29.2987 98.7108 30.28 98.7108 31.4C98.7108 32.52 98.4494 33.5013 97.9268 34.344C97.4148 35.1867 96.6894 35.8427 95.7508 36.312C94.8228 36.7707 93.7508 37 92.5348 37H87.4468V25.8ZM92.4068 34.872C93.5268 34.872 94.4174 34.5627 95.0788 33.944C95.7508 33.3147 96.0868 32.4667 96.0868 31.4C96.0868 30.3333 95.7508 29.4907 95.0788 28.872C94.4174 28.2427 93.5268 27.928 92.4068 27.928H90.0388V34.872H92.4068ZM108.757 33.032V37H106.165V33L101.829 25.8H104.581L107.573 30.776L110.565 25.8H113.109L108.757 33.032ZM120.839 37.192C119.954 37.192 119.095 37.0747 118.263 36.84C117.442 36.5947 116.781 36.28 116.279 35.896L117.159 33.944C117.639 34.296 118.21 34.5787 118.871 34.792C119.533 35.0053 120.194 35.112 120.855 35.112C121.591 35.112 122.135 35.0053 122.487 34.792C122.839 34.568 123.015 34.2747 123.015 33.912C123.015 33.6453 122.909 33.4267 122.695 33.256C122.493 33.0747 122.226 32.9307 121.895 32.824C121.575 32.7173 121.138 32.6 120.583 32.472C119.73 32.2693 119.031 32.0667 118.487 31.864C117.943 31.6613 117.474 31.336 117.079 30.888C116.695 30.44 116.503 29.8427 116.503 29.096C116.503 28.4453 116.679 27.8587 117.031 27.336C117.383 26.8027 117.911 26.3813 118.615 26.072C119.33 25.7627 120.199 25.608 121.223 25.608C121.938 25.608 122.637 25.6933 123.319 25.864C124.002 26.0347 124.599 26.28 125.111 26.6L124.311 28.568C123.277 27.9813 122.242 27.688 121.207 27.688C120.482 27.688 119.943 27.8053 119.591 28.04C119.25 28.2747 119.079 28.584 119.079 28.968C119.079 29.352 119.277 29.64 119.671 29.832C120.077 30.0133 120.69 30.1947 121.511 30.376C122.365 30.5787 123.063 30.7813 123.607 30.984C124.151 31.1867 124.615 31.5067 124.999 31.944C125.394 32.3813 125.591 32.9733 125.591 33.72C125.591 34.36 125.41 34.9467 125.047 35.48C124.695 36.0027 124.162 36.4187 123.447 36.728C122.733 37.0373 121.863 37.192 120.839 37.192ZM139.234 34.92V37H130.562V25.8H139.026V27.88H133.138V30.312H138.338V32.328H133.138V34.92H139.234ZM149.763 33.032V37H147.171V33L142.835 25.8H145.587L148.579 30.776L151.571 25.8H154.115L149.763 33.032Z" fill="white"/>
</svg>
