<svg width="24" height="24" viewBox="0 0 24 24" fill="none" xmlns="http://www.w3.org/2000/svg">
<g clip-path="url(#clip0)">
<path d="M24 4.82634C22.4903 4.89592 22.5233 4.89024 22.3526 4.90452L23.2467 2.35112C23.2467 2.35112 20.4558 3.37779 19.7483 3.56145C17.8901 1.89134 15.1282 1.81755 13.1536 3.03117C11.5366 4.02525 10.6686 5.73234 10.9581 7.72764C7.8111 7.29094 5.15955 5.79918 3.0661 3.28441L2.40399 2.48918L1.90924 3.39775C1.28394 4.54582 1.07629 5.8585 1.3244 7.09392C1.42621 7.60075 1.59924 8.08415 1.83893 8.53679L1.27094 8.31669L1.20355 9.26573C1.13525 10.2298 1.45624 11.3551 2.06232 12.2758C2.23297 12.5351 2.4527 12.8198 2.7312 13.1007L2.43768 13.0556L2.79584 14.1431C3.2666 15.5719 4.24438 16.6773 5.51331 17.2918C4.24603 17.8296 3.22229 18.1727 1.53955 18.7262L0 19.2323L1.422 20.0098C1.96417 20.3063 3.88 21.2963 5.77295 21.5933C9.98071 22.2532 14.7182 21.7158 17.9075 18.8434C20.5939 16.4241 21.4753 12.9826 21.2922 9.40123C21.2646 8.85905 21.4131 8.3416 21.7104 7.94444C22.3061 7.14921 23.9963 4.83165 24 4.82634ZM20.586 7.10216C20.0922 7.76152 19.8448 8.60362 19.8891 9.47301C20.0739 13.0855 19.0909 15.887 16.9675 17.7994C14.4869 20.0334 10.4859 20.9103 5.99066 20.2052C5.17657 20.0776 4.33521 19.7917 3.63885 19.5063C5.04968 19.0209 6.13916 18.5882 7.89862 17.7554L10.3548 16.5929L7.64301 16.4193C6.34406 16.3362 5.26245 15.7066 4.5976 14.6846C4.95062 14.664 5.29102 14.6069 5.62994 14.5124L8.21631 13.7921L5.60834 13.1534C4.34106 12.8431 3.61871 12.0848 3.23584 11.5033C2.98444 11.1211 2.82019 10.7297 2.72168 10.3688C2.98315 10.4389 3.28802 10.4889 3.77966 10.5376L6.19354 10.7764L4.28101 9.28441C2.90295 8.20958 2.35071 6.59477 2.75555 5.0424C7.05634 9.50322 12.106 9.16795 12.6143 9.28587C12.5024 8.19914 12.4995 8.19658 12.4702 8.09312C11.8193 5.79204 13.2458 4.62364 13.8893 4.22813C15.2333 3.40214 17.3666 3.27763 18.8443 4.63847C19.1635 4.93217 19.595 5.04771 19.999 4.94737C20.3615 4.85728 20.6591 4.76188 20.9504 4.65806L20.3439 6.38988L21.1181 6.39042C20.972 6.58635 20.7968 6.82091 20.586 7.10216Z" fill="white"/>
</g>
<defs>
<clipPath id="clip0">
<rect width="24" height="24" fill="white"/>
</clipPath>
</defs>
</svg>
